<?xml version="1.0" encoding="utf-8"?>
<svg width="800px" height="800px" viewBox="0 0 20 20" xmlns="http://www.w3.org/2000/svg">
  <g id="list-square" transform="translate(-2 -2)">
    <rect id="secondary" fill="#FFFFFF" width="18" height="18" rx="1" transform="translate(3 3)"/>
    <line id="primary-upstroke" x2="0.1" transform="translate(7.45 8)" fill="none" stroke="#000000" stroke-linecap="round" stroke-linejoin="round" stroke-width="2.5"/>
    <line id="primary-upstroke-2" data-name="primary-upstroke" x2="0.1" transform="translate(7.45 12)" fill="none" stroke="#000000" stroke-linecap="round" stroke-linejoin="round" stroke-width="2.5"/>
    <line id="primary-upstroke-3" data-name="primary-upstroke" x2="0.1" transform="translate(7.45 16)" fill="none" stroke="#000000" stroke-linecap="round" stroke-linejoin="round" stroke-width="2.5"/>
    <path id="primary" d="M12,8h5m-5,4h5m-5,4h5M3,4V20a1,1,0,0,0,1,1H20a1,1,0,0,0,1-1V4a1,1,0,0,0-1-1H4A1,1,0,0,0,3,4Z" fill="none" stroke="#000000" stroke-linecap="round" stroke-linejoin="round" stroke-width="2"/>
  </g>
</svg>